<?xml version="1.0" standalone="no"?>
<!DOCTYPE svg PUBLIC "-//W3C//DTD SVG 20010904//EN"
 "http://www.w3.org/TR/2001/REC-SVG-20010904/DTD/svg10.dtd">
<svg version="1.0" xmlns="http://www.w3.org/2000/svg"
 width="100.000000pt" height="44.000000pt" viewBox="0 0 100.000000 44.000000"
 preserveAspectRatio="xMidYMid meet">
<metadata>
Created by potrace 1.13, written by Peter Selinger 2001-2015
</metadata>
<g transform="translate(0.000000,44.000000) scale(0.100000,-0.100000)"
fill="#000000" stroke="none">
<path d="M314 396 c-21 -21 -34 -44 -34 -59 0 -42 16 -39 29 4 13 43 46 83 61
74 5 -3 -4 -42 -19 -87 -21 -63 -33 -83 -52 -91 -20 -8 -21 -11 -6 -14 22 -6
22 -6 -8 -109 -29 -100 -30 -105 -11 -98 7 3 28 49 45 103 l31 99 56 7 c31 4
57 5 60 3 2 -3 -6 -44 -18 -92 -15 -62 -19 -93 -12 -104 21 -32 31 -22 37 35
3 32 11 82 17 111 10 42 16 52 33 53 17 1 18 2 5 6 -10 2 -18 10 -18 18 0 12
32 122 48 164 5 14 3 14 -11 3 -9 -8 -28 -49 -42 -93 l-27 -79 -59 0 c-32 0
-59 1 -59 3 0 1 9 31 20 65 11 35 20 75 20 88 0 37 -44 32 -86 -10z"/>
</g>
</svg>
