<?xml version="1.0" encoding="UTF-8" standalone="no"?>
<!-- Created with Inkscape (http://www.inkscape.org/) -->

<svg
   xmlns:dc="http://purl.org/dc/elements/1.1/"
   xmlns:cc="http://creativecommons.org/ns#"
   xmlns:rdf="http://www.w3.org/1999/02/22-rdf-syntax-ns#"
   xmlns:svg="http://www.w3.org/2000/svg"
   xmlns="http://www.w3.org/2000/svg"
   version="1.1"
   width="396"
   height="432"
   id="svg2">
  <metadata
     id="metadata8">
    <rdf:RDF>
      <cc:Work
         rdf:about="">
        <dc:format>image/svg+xml</dc:format>
        <dc:type
           rdf:resource="http://purl.org/dc/dcmitype/StillImage" />
        <dc:title></dc:title>
      </cc:Work>
    </rdf:RDF>
  </metadata>
  <defs
     id="defs6" />
  <path
     d="m 310.31837,405.14948 0,-26.46379 -9.75,-0.28621 -9.75,-0.28621 -0.29989,-5.75 -0.29992,-5.75 32.8073,0 32.80729,0 5.86378,13.25 c 3.22508,7.2875 6.16306,13.5813 6.52883,13.98621 0.36578,0.40492 3.52834,-5.55758 7.02792,-13.25 l 6.36287,-13.98621 6.35091,0 c 3.49301,0 6.34462,0.3375 6.33691,0.75 -0.008,0.4125 -4.2827,9.50657 -9.5,20.20903 l -9.486,19.45904 0,12.29096 0,12.29097 -7,0 -7,0 0.01,-12.25 0.01,-12.25 -6.73496,-14.25 -6.73496,-14.25 -12.27464,0 -12.27463,0 0,26.5 0,26.5 -6.5,0 -6.5,0 0,-26.46379 z m -45,-6.03621 0,-32.5 6.5,0 6.5,0 0,32.5 0,32.5 -6.5,0 -6.5,0 0,-32.5 z m -93.04427,9.25 c -0.0243,-0.1375 -1.95596,-5.77712 -4.29247,-12.53249 l -4.2482,-12.28249 -3.64213,10.78249 c -2.00317,5.93037 -3.9447,11.56999 -4.31452,12.53249 -0.6083,1.5832 0.14799,1.75 7.9346,1.75 4.73385,0 8.58707,-0.1125 8.56272,-0.25 z m -37.92411,23.04569 c 0.0174,-0.16263 5.08191,-14.69569 11.25452,-32.29569 l 11.22291,-32 7.34052,0 7.34052,0 11.40496,31.93854 c 6.27272,17.5662 11.40495,32.09842 11.40495,32.29381 0,0.1954 -3.23848,0.22305 -7.19663,0.0615 l -7.19663,-0.29385 -1.99591,-6.25 -1.99592,-6.25 -12.11491,0 -12.11491,0 -1.99563,6.25 -1.99562,6.25 -6.69692,0.29569 c -3.68331,0.16263 -6.6827,0.16263 -6.66531,0 z m 85.85066,-0.17627 c -9.31703,-3.32944 -14.48331,-8.86884 -17.30138,-18.55092 -4.1013,-14.09086 0.47509,-32.433 9.88231,-39.60824 7.3571,-5.61153 20.40817,-8.03598 31.41179,-5.83526 2.96247,0.59249 3.1242,0.86555 3.10969,5.25 -0.008,2.54375 -0.34591,5.075 -0.75,5.625 -0.40746,0.5546 -5.33101,1 -11.05428,1 l -10.31959,0 -3.82887,4.10243 c -4.98093,5.33679 -6.71937,12.70538 -5.12929,21.74126 1.74812,9.93398 6.54104,14.69685 15.54059,15.44316 3.0394,0.25205 7.6128,-0.0671 10.16311,-0.70931 2.5503,-0.64218 4.76601,-1.03483 4.92376,-0.87257 0.15776,0.16227 0.44052,2.76993 0.62836,5.79481 l 0.34152,5.49977 -4.5,1.16975 c -6.04883,1.57236 -18.6542,1.54516 -23.11772,-0.0499 z M 100.00327,419.54666 c 7.42236,-2.81226 11.261,-9.94066 11.29314,-20.9715 0.0421,-14.44397 -6.2358,-20.96189 -20.189925,-20.96189 l -6.78811,0 0,21.5 0,21.5 6.4349,0 c 3.5392,0 7.7017,-0.47998 9.249995,-1.06661 z m -24.448675,12.33373 -4.26377,-0.38346 0.26377,-32.19183 0.26378,-32.19183 13.44515,-0.28038 c 15.943955,-0.3325 22.382755,0.80862 28.772395,5.09921 7.12579,4.7849 10.67694,12.36982 11.12871,23.76985 1.08527,27.38574 -15.21371,39.27188 -49.610035,36.17844 z m -60.736218,-0.41785 c -5.0343105,-1.85343 -9.6210605,-5.9043 -11.5868805,-10.23318 -1.6654,-3.66732 -1.87159,-6.86904 -1.89116,-29.36609 l -0.022,-25.25 6.5,0 6.5000005,0 0,23.54966 c 0,25.59145 0.42791,27.95738 5.47206,30.25565 3.84514,1.75197 12.64265,1.50307 15.41107,-0.436 4.54255,-3.18173 5.11687,-6.64289 5.11687,-30.83719 l 0,-22.53212 6.5,0 6.5,0 0,22.3185 c 0,24.48194 -0.87418,30.00165 -5.65045,35.67793 -4.56411,5.42414 -9.6714,7.34942 -20.34955,7.67112 -5.23576,0.15773 -10.8466,-0.20957 -12.5,-0.81828 z"
     id="path2997"
     style="fill:#ee7622;fill-opacity:1" />
  <path
     d="m 163.81837,296.99212 c -37.1629,-3.83887 -54.00858,-9.98212 -69.592475,-25.37885 -15.1475,-14.96558 -21.23263,-28.95703 -23.85781,-54.85595 -0.62581,-6.17392 -1.04971,-39.01614 -1.04971,-81.32693 l 0,-70.97096 -2.841588,-2.84159 c -2.02397,-2.02398 -4.60052,-3.18764 -8.95469,-4.04427 -6.93735,-1.36484 -10.28849,-4.01702 -8.5527,-6.76883 0.97217,-1.5412 4.51219,-1.69147 39.848978,-1.69147 35.336795,0 38.876815,0.15027 39.848975,1.69147 1.96396,3.11352 -1.50951,5.33399 -10.49588,6.70964 -9.35468,1.43204 -12.26665,2.97784 -13.77828,7.3141 -1.4505,4.16091 -1.46973,133.22178 -0.0218,146.5742 1.37554,12.68521 4.29699,24.9943 7.37274,31.06401 3.6221,7.14786 11.59947,15.34836 18.51792,19.03586 18.85401,10.04908 53.39121,12.01243 77.5327,4.40754 11.0551,-3.4825 15.02573,-5.68026 21.61154,-11.96205 7.09003,-6.76275 11.06679,-14.65748 14.02102,-27.83477 2.20838,-9.85042 2.25057,-11.38365 2.82022,-102.5 l 0.5783,-92.499997 2.33023,-5.782311 c 4.68415,-11.623518 12.01205,-18.19483 23.62241,-21.183484 4.67084,-1.202333 12.07964,-1.534205 34.25,-1.534205 l 28.2899,0 0,2.964816 c 0,3.81929 -1.42798,4.508235 -12.5,6.030758 -4.95,0.680678 -10.4787,1.843939 -12.28599,2.585022 -6.46723,2.651898 -6.21401,-1.472525 -6.21401,101.213601 0,95.41717 -0.40436,107.64704 -4.02772,121.8142 -3.2078,12.5424 -10.11506,24.4909 -19.69702,34.07286 -18.23727,18.23727 -42.2414,25.17396 -89.27526,25.79866 -12.925,0.17167 -25.3,0.12619 -27.5,-0.10107 z"
     id="path2993"
     style="fill:#ee7622;fill-opacity:1" />
  <path
     d=""
     id="path2991"
     style="fill:#000000" />
  <path
     d=""
     id="path2989"
     style="fill:#000000" />
  <path
     d=""
     id="path2987"
     style="fill:#000000" />
</svg>
